<?xml version="1.0" encoding="UTF-8" standalone="no"?>
<!DOCTYPE svg PUBLIC "-//W3C//DTD SVG 1.1//EN" "http://www.w3.org/Graphics/SVG/1.1/DTD/svg11.dtd">
<svg width="100%" height="100%" viewBox="0 0 1182 1182" version="1.1" xmlns="http://www.w3.org/2000/svg" xmlns:xlink="http://www.w3.org/1999/xlink" xml:space="preserve" xmlns:serif="http://www.serif.com/" style="fill-rule:evenodd;clip-rule:evenodd;stroke-linejoin:round;stroke-miterlimit:2;">
    <g transform="matrix(10.8462,0,0,2.01416,-15360.7,-644.917)">
        <rect x="1307.34" y="320.191" width="326.688" height="586.399" style="fill:none;"/>
    </g>
    <g transform="matrix(1,0,0,1,-1289.99,7.2027)">
        <g>
            <g transform="matrix(0.861711,0,0,0.861711,1023.38,15.6358)">
                <circle cx="994.723" cy="658.821" r="522.282" style="fill:rgb(41,106,139);"/>
            </g>
            <g transform="matrix(1,0,0,1,489.545,-97.6522)">
                <g transform="matrix(762.458,0,0,762.458,1005.19,980.901)">
                    <path d="M0.535,0.028C0.464,0.028 0.405,0.015 0.359,-0.012C0.313,-0.039 0.29,-0.083 0.29,-0.145C0.29,-0.194 0.303,-0.237 0.33,-0.273C0.357,-0.308 0.393,-0.342 0.44,-0.373C0.415,-0.394 0.397,-0.415 0.386,-0.438C0.375,-0.46 0.369,-0.488 0.369,-0.523C0.369,-0.542 0.37,-0.559 0.373,-0.575C0.376,-0.591 0.379,-0.61 0.384,-0.633C0.387,-0.646 0.39,-0.66 0.393,-0.674C0.395,-0.688 0.396,-0.701 0.396,-0.713C0.396,-0.744 0.388,-0.769 0.371,-0.789C0.367,-0.793 0.363,-0.797 0.358,-0.801C0.353,-0.805 0.351,-0.808 0.351,-0.809C0.351,-0.812 0.352,-0.814 0.355,-0.815C0.358,-0.816 0.362,-0.816 0.368,-0.816C0.375,-0.816 0.384,-0.815 0.393,-0.814C0.402,-0.812 0.41,-0.81 0.416,-0.807C0.469,-0.791 0.495,-0.76 0.495,-0.715C0.495,-0.704 0.493,-0.693 0.49,-0.683C0.487,-0.672 0.481,-0.659 0.474,-0.644L0.465,-0.624C0.456,-0.602 0.448,-0.582 0.443,-0.565C0.438,-0.548 0.435,-0.529 0.435,-0.508C0.435,-0.485 0.44,-0.464 0.45,-0.443C0.459,-0.422 0.471,-0.411 0.484,-0.411C0.493,-0.411 0.502,-0.413 0.511,-0.417C0.521,-0.421 0.534,-0.427 0.549,-0.435C0.564,-0.443 0.577,-0.449 0.587,-0.453C0.596,-0.457 0.605,-0.459 0.613,-0.459C0.632,-0.459 0.649,-0.454 0.664,-0.444C0.679,-0.434 0.686,-0.423 0.686,-0.41C0.686,-0.395 0.679,-0.384 0.665,-0.378C0.65,-0.371 0.625,-0.365 0.59,-0.359C0.524,-0.348 0.469,-0.327 0.424,-0.295C0.379,-0.263 0.356,-0.221 0.356,-0.169C0.356,-0.136 0.367,-0.109 0.389,-0.09C0.41,-0.07 0.443,-0.06 0.486,-0.06C0.509,-0.06 0.539,-0.064 0.578,-0.072C0.611,-0.079 0.636,-0.082 0.652,-0.082C0.675,-0.082 0.692,-0.078 0.704,-0.07C0.716,-0.062 0.722,-0.05 0.722,-0.035C0.722,-0.012 0.703,0.005 0.666,0.014C0.629,0.023 0.585,0.028 0.535,0.028Z" style="fill:white;fill-rule:nonzero;"/>
                </g>
            </g>
        </g>
    </g>
</svg>
