<?xml version="1.0" encoding="UTF-8" standalone="no"?>
<!DOCTYPE svg PUBLIC "-//W3C//DTD SVG 1.1//EN" "http://www.w3.org/Graphics/SVG/1.1/DTD/svg11.dtd">
<svg width="100%" height="100%" viewBox="0 0 9449 1182" version="1.1" xmlns="http://www.w3.org/2000/svg" xmlns:xlink="http://www.w3.org/1999/xlink" xml:space="preserve" xmlns:serif="http://www.serif.com/" style="fill-rule:evenodd;clip-rule:evenodd;stroke-linejoin:round;stroke-miterlimit:2;">
    <g transform="matrix(1,0,0,1,-399.582,-96.8039)">
        <g transform="matrix(762.458,0,0,762.458,1005.19,980.901)">
            <path d="M0.827,-0.545C0.83,-0.549 0.834,-0.555 0.839,-0.562C0.844,-0.569 0.848,-0.574 0.851,-0.577C0.854,-0.58 0.856,-0.582 0.859,-0.582C0.863,-0.582 0.873,-0.576 0.888,-0.564C0.904,-0.551 0.919,-0.538 0.933,-0.525C0.946,-0.511 0.953,-0.502 0.953,-0.497C0.95,-0.486 0.942,-0.481 0.927,-0.481L0.541,-0.481C0.494,-0.48 0.444,-0.476 0.391,-0.467L0.365,-0.517C0.402,-0.513 0.446,-0.51 0.498,-0.509L0.593,-0.509L0.593,-0.655L0.53,-0.655C0.494,-0.654 0.457,-0.65 0.418,-0.641L0.392,-0.692C0.429,-0.688 0.473,-0.685 0.525,-0.684L0.593,-0.684C0.593,-0.749 0.59,-0.802 0.583,-0.843C0.629,-0.832 0.661,-0.824 0.68,-0.817C0.698,-0.81 0.707,-0.804 0.707,-0.799C0.707,-0.796 0.704,-0.792 0.699,-0.789L0.681,-0.778L0.681,-0.684L0.776,-0.684L0.799,-0.719C0.802,-0.724 0.806,-0.729 0.811,-0.736C0.815,-0.742 0.819,-0.747 0.822,-0.75C0.825,-0.752 0.827,-0.754 0.83,-0.754C0.834,-0.754 0.844,-0.748 0.859,-0.736C0.874,-0.724 0.887,-0.711 0.901,-0.698C0.914,-0.685 0.92,-0.676 0.92,-0.671C0.918,-0.66 0.91,-0.655 0.896,-0.655L0.681,-0.655L0.681,-0.509L0.803,-0.509L0.827,-0.545ZM0.171,-0.094C0.172,-0.087 0.172,-0.079 0.172,-0.07L0.175,-0.041C0.172,-0.034 0.164,-0.026 0.15,-0.019C0.136,-0.011 0.119,-0.007 0.099,-0.007C0.092,-0.007 0.086,-0.009 0.082,-0.013C0.077,-0.017 0.074,-0.022 0.074,-0.027C0.077,-0.066 0.079,-0.105 0.081,-0.141C0.083,-0.179 0.084,-0.227 0.085,-0.287L0.085,-0.587C0.085,-0.671 0.081,-0.739 0.072,-0.792L0.183,-0.747L0.268,-0.747L0.288,-0.772C0.291,-0.775 0.294,-0.779 0.298,-0.784C0.301,-0.789 0.304,-0.792 0.307,-0.795C0.31,-0.797 0.312,-0.798 0.315,-0.798C0.319,-0.798 0.329,-0.793 0.344,-0.782C0.359,-0.771 0.372,-0.76 0.385,-0.748C0.398,-0.736 0.404,-0.728 0.404,-0.723C0.396,-0.713 0.383,-0.706 0.364,-0.702L0.364,-0.322C0.365,-0.239 0.368,-0.161 0.372,-0.087C0.367,-0.08 0.356,-0.073 0.339,-0.066C0.321,-0.058 0.305,-0.054 0.291,-0.054C0.279,-0.054 0.273,-0.061 0.273,-0.074C0.273,-0.074 0.274,-0.083 0.277,-0.1L0.277,-0.123L0.171,-0.123L0.171,-0.094ZM0.277,-0.453L0.277,-0.718L0.171,-0.718L0.171,-0.453L0.277,-0.453ZM0.847,-0.38C0.85,-0.384 0.854,-0.389 0.858,-0.395C0.862,-0.401 0.865,-0.406 0.868,-0.408C0.871,-0.411 0.873,-0.413 0.876,-0.413C0.88,-0.413 0.889,-0.407 0.903,-0.397C0.916,-0.386 0.929,-0.374 0.941,-0.361C0.953,-0.348 0.959,-0.34 0.959,-0.335C0.957,-0.324 0.948,-0.319 0.933,-0.319L0.8,-0.319L0.8,-0.033C0.8,-0.008 0.797,0.013 0.791,0.028C0.785,0.043 0.773,0.056 0.754,0.065C0.736,0.075 0.709,0.082 0.672,0.085C0.67,0.07 0.667,0.057 0.664,0.046C0.661,0.036 0.656,0.028 0.649,0.021C0.641,0.013 0.63,0.006 0.617,0.001C0.603,-0.004 0.584,-0.008 0.561,-0.012L0.561,-0.026C0.633,-0.021 0.676,-0.019 0.689,-0.019C0.698,-0.019 0.704,-0.02 0.707,-0.023C0.71,-0.026 0.711,-0.031 0.711,-0.038L0.711,-0.319L0.544,-0.319C0.497,-0.318 0.447,-0.314 0.394,-0.305L0.368,-0.356C0.405,-0.352 0.449,-0.349 0.501,-0.348L0.711,-0.348C0.711,-0.397 0.709,-0.437 0.704,-0.468C0.749,-0.457 0.78,-0.448 0.797,-0.441C0.814,-0.434 0.822,-0.429 0.822,-0.424C0.822,-0.422 0.82,-0.419 0.815,-0.416L0.8,-0.406L0.8,-0.348L0.826,-0.348L0.847,-0.38ZM0.171,-0.424L0.171,-0.152L0.277,-0.152L0.277,-0.424L0.171,-0.424ZM0.449,-0.285C0.504,-0.269 0.544,-0.248 0.57,-0.222C0.595,-0.196 0.608,-0.17 0.608,-0.145C0.608,-0.129 0.603,-0.116 0.594,-0.106C0.585,-0.095 0.573,-0.09 0.56,-0.09C0.547,-0.09 0.533,-0.095 0.52,-0.106C0.517,-0.133 0.507,-0.163 0.492,-0.194C0.477,-0.225 0.459,-0.254 0.44,-0.279L0.449,-0.285Z" style="fill:rgb(41,106,139);fill-rule:nonzero;"/>
        </g>
        <g transform="matrix(762.458,0,0,762.458,1767.65,980.901)">
            <path d="M0.695,-0.346C0.63,-0.323 0.577,-0.304 0.535,-0.287C0.534,-0.268 0.534,-0.25 0.535,-0.233C0.537,-0.202 0.538,-0.181 0.537,-0.172C0.536,-0.158 0.531,-0.145 0.522,-0.134C0.513,-0.122 0.502,-0.116 0.49,-0.116C0.478,-0.116 0.467,-0.121 0.458,-0.131C0.449,-0.14 0.444,-0.152 0.444,-0.165C0.444,-0.17 0.445,-0.187 0.448,-0.215L0.451,-0.249C0.374,-0.209 0.336,-0.167 0.336,-0.122C0.336,-0.076 0.381,-0.053 0.47,-0.053C0.493,-0.053 0.512,-0.054 0.528,-0.057C0.543,-0.06 0.563,-0.064 0.586,-0.069C0.613,-0.076 0.634,-0.08 0.649,-0.08C0.666,-0.08 0.679,-0.077 0.689,-0.07C0.698,-0.063 0.703,-0.053 0.703,-0.04C0.703,-0.015 0.683,0.002 0.644,0.013C0.604,0.024 0.561,0.03 0.514,0.03C0.442,0.03 0.388,0.018 0.352,-0.005C0.315,-0.028 0.297,-0.061 0.297,-0.103C0.297,-0.138 0.311,-0.171 0.339,-0.2C0.366,-0.229 0.405,-0.258 0.454,-0.287C0.455,-0.294 0.455,-0.304 0.455,-0.318C0.455,-0.349 0.45,-0.376 0.44,-0.397C0.429,-0.418 0.417,-0.428 0.403,-0.428C0.384,-0.428 0.365,-0.417 0.346,-0.394C0.328,-0.371 0.308,-0.342 0.287,-0.306L0.272,-0.281C0.27,-0.278 0.265,-0.27 0.256,-0.257C0.247,-0.244 0.239,-0.234 0.232,-0.227C0.224,-0.22 0.216,-0.217 0.208,-0.217C0.194,-0.217 0.183,-0.223 0.175,-0.235C0.167,-0.247 0.163,-0.261 0.163,-0.278C0.163,-0.291 0.166,-0.302 0.172,-0.313C0.178,-0.324 0.188,-0.335 0.201,-0.347L0.217,-0.362C0.25,-0.392 0.275,-0.419 0.292,-0.443C0.325,-0.488 0.351,-0.539 0.37,-0.597C0.339,-0.592 0.314,-0.59 0.294,-0.59C0.271,-0.59 0.25,-0.595 0.233,-0.606C0.216,-0.617 0.195,-0.634 0.172,-0.657C0.169,-0.661 0.168,-0.664 0.168,-0.665C0.168,-0.666 0.17,-0.667 0.173,-0.667C0.176,-0.667 0.18,-0.666 0.187,-0.664C0.215,-0.654 0.241,-0.649 0.265,-0.649C0.278,-0.649 0.296,-0.651 0.319,-0.654C0.341,-0.657 0.364,-0.662 0.387,-0.669C0.39,-0.689 0.392,-0.705 0.392,-0.718C0.392,-0.747 0.381,-0.768 0.359,-0.781C0.356,-0.782 0.353,-0.784 0.351,-0.786C0.349,-0.788 0.348,-0.79 0.348,-0.793C0.348,-0.8 0.35,-0.805 0.354,-0.81C0.358,-0.815 0.364,-0.817 0.372,-0.817C0.385,-0.817 0.4,-0.815 0.417,-0.811C0.434,-0.807 0.446,-0.802 0.453,-0.795C0.458,-0.79 0.461,-0.781 0.461,-0.768C0.461,-0.764 0.46,-0.757 0.459,-0.748C0.472,-0.741 0.487,-0.738 0.502,-0.738C0.511,-0.738 0.519,-0.739 0.526,-0.741C0.535,-0.742 0.543,-0.743 0.548,-0.743C0.565,-0.743 0.573,-0.736 0.573,-0.722C0.573,-0.709 0.567,-0.695 0.556,-0.682C0.545,-0.668 0.529,-0.655 0.508,-0.644C0.485,-0.631 0.456,-0.619 0.421,-0.609C0.403,-0.555 0.381,-0.501 0.354,-0.448C0.37,-0.457 0.386,-0.461 0.402,-0.461C0.462,-0.461 0.5,-0.43 0.516,-0.368C0.527,-0.395 0.539,-0.419 0.552,-0.439C0.564,-0.459 0.578,-0.478 0.595,-0.496C0.616,-0.518 0.64,-0.538 0.669,-0.555C0.697,-0.572 0.726,-0.58 0.756,-0.58C0.783,-0.58 0.806,-0.572 0.825,-0.556C0.843,-0.539 0.852,-0.518 0.852,-0.491C0.852,-0.458 0.837,-0.43 0.808,-0.406C0.778,-0.384 0.74,-0.363 0.695,-0.346ZM0.446,-0.692L0.469,-0.705C0.474,-0.708 0.476,-0.71 0.476,-0.713C0.476,-0.716 0.473,-0.719 0.468,-0.722L0.456,-0.73L0.446,-0.692ZM0.611,-0.478C0.594,-0.459 0.579,-0.437 0.566,-0.411C0.553,-0.387 0.545,-0.36 0.54,-0.333L0.552,-0.339C0.613,-0.37 0.653,-0.391 0.674,-0.404C0.703,-0.42 0.725,-0.438 0.742,-0.458C0.758,-0.477 0.766,-0.495 0.766,-0.51C0.766,-0.52 0.763,-0.528 0.756,-0.534C0.749,-0.54 0.739,-0.543 0.726,-0.543C0.709,-0.543 0.69,-0.538 0.67,-0.527C0.649,-0.516 0.63,-0.499 0.611,-0.478Z" style="fill:rgb(41,106,139);fill-rule:nonzero;"/>
        </g>
        <g transform="matrix(762.458,0,0,762.458,2530.11,980.901)">
            <path d="M0.84,-0.753C0.842,-0.756 0.845,-0.761 0.85,-0.768C0.854,-0.775 0.857,-0.78 0.86,-0.783C0.863,-0.786 0.865,-0.788 0.868,-0.788C0.872,-0.788 0.88,-0.782 0.892,-0.771C0.905,-0.759 0.917,-0.746 0.928,-0.733C0.939,-0.72 0.944,-0.711 0.944,-0.706C0.942,-0.695 0.934,-0.69 0.92,-0.69L0.65,-0.69C0.661,-0.609 0.682,-0.537 0.713,-0.476C0.727,-0.503 0.739,-0.533 0.75,-0.567C0.76,-0.6 0.766,-0.63 0.768,-0.657C0.848,-0.627 0.888,-0.608 0.888,-0.6C0.888,-0.598 0.885,-0.596 0.879,-0.593L0.86,-0.587C0.832,-0.518 0.797,-0.458 0.755,-0.407C0.781,-0.372 0.812,-0.343 0.847,-0.32C0.854,-0.315 0.859,-0.312 0.862,-0.312C0.867,-0.312 0.871,-0.316 0.875,-0.324C0.889,-0.348 0.903,-0.381 0.918,-0.422L0.928,-0.42L0.914,-0.291C0.933,-0.265 0.942,-0.246 0.942,-0.233C0.942,-0.228 0.94,-0.222 0.937,-0.217C0.928,-0.204 0.914,-0.198 0.896,-0.198C0.87,-0.198 0.839,-0.21 0.802,-0.235C0.762,-0.264 0.726,-0.3 0.693,-0.343C0.648,-0.303 0.597,-0.27 0.538,-0.244L0.528,-0.256C0.576,-0.292 0.62,-0.337 0.66,-0.392C0.629,-0.443 0.603,-0.505 0.584,-0.578C0.58,-0.572 0.572,-0.569 0.561,-0.569L0.411,-0.569C0.364,-0.568 0.314,-0.564 0.261,-0.555L0.236,-0.606C0.273,-0.602 0.317,-0.599 0.369,-0.598L0.446,-0.598L0.496,-0.664C0.531,-0.636 0.559,-0.612 0.582,-0.591C0.573,-0.626 0.567,-0.659 0.562,-0.69L0.222,-0.69L0.222,-0.567C0.222,-0.486 0.212,-0.41 0.191,-0.341C0.17,-0.272 0.127,-0.213 0.062,-0.164L0.052,-0.174C0.086,-0.227 0.108,-0.285 0.119,-0.349C0.13,-0.413 0.135,-0.486 0.135,-0.567L0.135,-0.663C0.135,-0.702 0.133,-0.735 0.129,-0.764L0.234,-0.719L0.56,-0.719C0.555,-0.761 0.552,-0.804 0.551,-0.847C0.626,-0.844 0.663,-0.838 0.663,-0.829C0.663,-0.826 0.661,-0.823 0.656,-0.82L0.641,-0.809C0.641,-0.779 0.643,-0.749 0.647,-0.719L0.82,-0.719L0.84,-0.753ZM0.687,-0.844C0.73,-0.84 0.761,-0.831 0.781,-0.817C0.801,-0.803 0.811,-0.788 0.811,-0.771C0.811,-0.76 0.807,-0.751 0.799,-0.744C0.791,-0.736 0.782,-0.732 0.771,-0.732C0.761,-0.732 0.75,-0.736 0.739,-0.744C0.735,-0.76 0.727,-0.777 0.716,-0.794C0.705,-0.811 0.692,-0.825 0.679,-0.836L0.687,-0.844ZM0.467,-0.52C0.47,-0.523 0.473,-0.528 0.478,-0.535C0.484,-0.542 0.488,-0.545 0.492,-0.545C0.496,-0.545 0.505,-0.54 0.519,-0.53C0.533,-0.519 0.546,-0.508 0.558,-0.497C0.57,-0.485 0.576,-0.477 0.576,-0.472C0.568,-0.463 0.556,-0.457 0.539,-0.454L0.539,-0.406L0.54,-0.377C0.541,-0.355 0.542,-0.335 0.544,-0.316C0.541,-0.31 0.531,-0.304 0.515,-0.298C0.499,-0.291 0.484,-0.288 0.471,-0.288L0.458,-0.288L0.458,-0.326L0.344,-0.326L0.344,-0.293C0.344,-0.289 0.336,-0.284 0.321,-0.277C0.305,-0.27 0.289,-0.267 0.274,-0.267C0.269,-0.267 0.265,-0.269 0.262,-0.273C0.259,-0.277 0.258,-0.282 0.258,-0.287C0.26,-0.302 0.261,-0.317 0.262,-0.333C0.262,-0.342 0.262,-0.349 0.263,-0.355L0.263,-0.399C0.263,-0.456 0.26,-0.502 0.255,-0.536L0.348,-0.496L0.449,-0.496L0.467,-0.52ZM0.458,-0.355L0.458,-0.467L0.344,-0.467L0.344,-0.355L0.458,-0.355ZM0.43,-0.241C0.473,-0.238 0.509,-0.23 0.537,-0.218C0.565,-0.205 0.585,-0.191 0.598,-0.174C0.611,-0.157 0.617,-0.141 0.617,-0.125C0.617,-0.112 0.613,-0.101 0.606,-0.092C0.598,-0.083 0.588,-0.078 0.576,-0.078C0.568,-0.078 0.559,-0.081 0.548,-0.086C0.539,-0.111 0.522,-0.138 0.498,-0.165C0.473,-0.192 0.448,-0.215 0.422,-0.233L0.43,-0.241ZM0.306,-0.113C0.306,-0.154 0.304,-0.188 0.3,-0.217C0.343,-0.206 0.373,-0.198 0.39,-0.191C0.407,-0.184 0.415,-0.179 0.415,-0.174C0.415,-0.172 0.413,-0.169 0.408,-0.166L0.394,-0.156L0.394,-0.034C0.394,-0.027 0.396,-0.022 0.401,-0.02C0.406,-0.018 0.417,-0.017 0.435,-0.017L0.546,-0.017C0.601,-0.017 0.633,-0.017 0.642,-0.018C0.649,-0.019 0.655,-0.02 0.658,-0.021C0.661,-0.023 0.663,-0.026 0.666,-0.031C0.671,-0.038 0.676,-0.051 0.683,-0.07C0.689,-0.089 0.696,-0.111 0.703,-0.135L0.714,-0.135L0.717,-0.027C0.73,-0.022 0.74,-0.017 0.745,-0.012C0.75,-0.006 0.752,0.001 0.752,0.01C0.752,0.025 0.746,0.036 0.734,0.044C0.722,0.053 0.701,0.059 0.67,0.062C0.639,0.066 0.595,0.068 0.537,0.068L0.419,0.068C0.387,0.068 0.363,0.066 0.347,0.061C0.332,0.056 0.321,0.048 0.315,0.036C0.309,0.025 0.306,0.008 0.306,-0.015L0.306,-0.113ZM0.728,-0.199C0.778,-0.186 0.819,-0.169 0.851,-0.149C0.882,-0.128 0.905,-0.107 0.919,-0.085C0.933,-0.062 0.94,-0.041 0.94,-0.02C0.94,-0.003 0.936,0.01 0.927,0.021C0.918,0.032 0.906,0.037 0.893,0.037C0.881,0.037 0.869,0.033 0.856,0.024C0.848,-0.011 0.831,-0.049 0.805,-0.089C0.778,-0.128 0.749,-0.162 0.718,-0.191L0.728,-0.199ZM0.223,-0.196C0.23,-0.169 0.233,-0.142 0.233,-0.117C0.233,-0.08 0.226,-0.048 0.213,-0.021C0.199,0.005 0.182,0.024 0.162,0.036C0.149,0.043 0.136,0.047 0.123,0.047C0.11,0.047 0.098,0.043 0.089,0.034C0.079,0.026 0.074,0.015 0.074,0C0.074,-0.011 0.078,-0.021 0.085,-0.03C0.092,-0.039 0.101,-0.047 0.112,-0.053C0.135,-0.064 0.157,-0.083 0.176,-0.11C0.195,-0.136 0.206,-0.165 0.208,-0.197L0.223,-0.196Z" style="fill:rgb(41,106,139);fill-rule:nonzero;"/>
        </g>
        <g transform="matrix(762.458,0,0,762.458,3292.57,980.901)">
            <path d="M0.454,0.022C0.373,0.022 0.316,-0.002 0.281,-0.05C0.246,-0.097 0.228,-0.168 0.228,-0.263C0.228,-0.328 0.233,-0.401 0.242,-0.482C0.248,-0.537 0.251,-0.579 0.251,-0.606C0.251,-0.636 0.247,-0.662 0.237,-0.683C0.229,-0.704 0.215,-0.719 0.198,-0.729C0.197,-0.73 0.196,-0.731 0.193,-0.733C0.19,-0.735 0.188,-0.737 0.188,-0.739C0.188,-0.744 0.194,-0.747 0.207,-0.75C0.22,-0.753 0.232,-0.754 0.243,-0.754C0.283,-0.754 0.311,-0.744 0.328,-0.724C0.344,-0.704 0.352,-0.676 0.352,-0.64C0.352,-0.623 0.35,-0.599 0.345,-0.569C0.34,-0.539 0.335,-0.508 0.329,-0.476C0.313,-0.396 0.305,-0.326 0.305,-0.267C0.305,-0.216 0.311,-0.176 0.323,-0.147C0.335,-0.117 0.354,-0.096 0.38,-0.083C0.405,-0.07 0.44,-0.063 0.483,-0.063C0.578,-0.063 0.687,-0.115 0.809,-0.218C0.819,-0.225 0.825,-0.229 0.828,-0.229C0.83,-0.229 0.831,-0.228 0.831,-0.226C0.831,-0.223 0.827,-0.216 0.819,-0.205C0.702,-0.054 0.581,0.022 0.454,0.022ZM0.767,-0.608C0.75,-0.608 0.735,-0.616 0.724,-0.631C0.709,-0.652 0.695,-0.667 0.683,-0.678C0.671,-0.689 0.656,-0.697 0.638,-0.704C0.631,-0.707 0.626,-0.709 0.621,-0.711C0.616,-0.712 0.613,-0.714 0.61,-0.716C0.607,-0.717 0.605,-0.719 0.605,-0.721C0.605,-0.724 0.612,-0.727 0.625,-0.729C0.639,-0.73 0.652,-0.731 0.664,-0.731C0.701,-0.731 0.733,-0.724 0.762,-0.71C0.791,-0.696 0.805,-0.675 0.805,-0.647C0.805,-0.633 0.801,-0.623 0.792,-0.617C0.783,-0.611 0.775,-0.608 0.767,-0.608ZM0.658,-0.51C0.634,-0.51 0.617,-0.521 0.608,-0.542C0.599,-0.563 0.588,-0.582 0.577,-0.597C0.565,-0.612 0.55,-0.627 0.532,-0.64C0.528,-0.643 0.523,-0.646 0.517,-0.65C0.511,-0.653 0.508,-0.656 0.508,-0.658C0.508,-0.66 0.509,-0.662 0.513,-0.663C0.516,-0.664 0.519,-0.665 0.523,-0.665C0.541,-0.665 0.564,-0.661 0.592,-0.653C0.62,-0.645 0.645,-0.633 0.667,-0.616C0.688,-0.599 0.699,-0.579 0.699,-0.554C0.699,-0.539 0.695,-0.528 0.687,-0.521C0.679,-0.514 0.669,-0.51 0.658,-0.51Z" style="fill:rgb(41,106,139);fill-rule:nonzero;"/>
        </g>
        <g transform="matrix(762.458,0,0,762.458,4055.03,980.901)">
            <path d="M0.547,-0.406C0.584,-0.406 0.62,-0.399 0.655,-0.385C0.69,-0.37 0.718,-0.348 0.741,-0.32C0.763,-0.291 0.774,-0.255 0.774,-0.213C0.774,-0.167 0.761,-0.127 0.735,-0.094C0.708,-0.06 0.674,-0.034 0.631,-0.017C0.589,0.001 0.545,0.01 0.5,0.01C0.457,0.01 0.422,0 0.393,-0.019C0.364,-0.038 0.349,-0.061 0.349,-0.09C0.349,-0.113 0.358,-0.133 0.377,-0.15C0.396,-0.167 0.421,-0.175 0.452,-0.175C0.481,-0.175 0.508,-0.166 0.533,-0.149C0.558,-0.131 0.577,-0.107 0.59,-0.076C0.619,-0.092 0.642,-0.113 0.66,-0.139C0.677,-0.165 0.686,-0.194 0.686,-0.225C0.686,-0.274 0.671,-0.312 0.642,-0.337C0.613,-0.362 0.577,-0.375 0.536,-0.375C0.495,-0.375 0.456,-0.363 0.419,-0.34C0.382,-0.316 0.348,-0.275 0.316,-0.217C0.3,-0.186 0.288,-0.166 0.279,-0.155C0.27,-0.143 0.257,-0.138 0.241,-0.138C0.227,-0.138 0.216,-0.142 0.206,-0.151C0.198,-0.159 0.193,-0.17 0.193,-0.183C0.193,-0.206 0.2,-0.228 0.214,-0.249C0.228,-0.27 0.254,-0.303 0.293,-0.348C0.291,-0.346 0.316,-0.375 0.368,-0.434C0.447,-0.523 0.5,-0.584 0.526,-0.619C0.529,-0.623 0.533,-0.628 0.538,-0.635C0.543,-0.642 0.546,-0.648 0.549,-0.653C0.551,-0.658 0.552,-0.662 0.552,-0.666C0.552,-0.673 0.549,-0.679 0.544,-0.686C0.539,-0.693 0.533,-0.696 0.527,-0.696C0.52,-0.696 0.511,-0.69 0.502,-0.677C0.452,-0.606 0.406,-0.571 0.365,-0.571C0.344,-0.571 0.327,-0.58 0.313,-0.597C0.299,-0.614 0.29,-0.639 0.285,-0.671C0.284,-0.678 0.283,-0.684 0.283,-0.689C0.283,-0.692 0.283,-0.694 0.284,-0.696C0.285,-0.697 0.286,-0.698 0.287,-0.698C0.29,-0.698 0.294,-0.694 0.301,-0.685C0.312,-0.67 0.324,-0.663 0.337,-0.663C0.366,-0.663 0.413,-0.683 0.476,-0.722C0.495,-0.735 0.513,-0.741 0.53,-0.741C0.545,-0.741 0.562,-0.737 0.583,-0.73C0.604,-0.723 0.622,-0.713 0.637,-0.7C0.652,-0.687 0.66,-0.673 0.66,-0.657C0.66,-0.646 0.656,-0.634 0.648,-0.624C0.64,-0.613 0.628,-0.601 0.612,-0.589C0.511,-0.512 0.431,-0.435 0.372,-0.356C0.432,-0.389 0.49,-0.406 0.547,-0.406ZM0.495,-0.049C0.501,-0.049 0.509,-0.05 0.52,-0.051C0.503,-0.1 0.476,-0.124 0.437,-0.124C0.425,-0.124 0.416,-0.121 0.41,-0.116C0.404,-0.11 0.401,-0.103 0.401,-0.095C0.401,-0.082 0.411,-0.071 0.432,-0.062C0.452,-0.053 0.473,-0.049 0.495,-0.049Z" style="fill:rgb(41,106,139);fill-rule:nonzero;"/>
        </g>
        <g transform="matrix(762.458,0,0,762.458,4817.48,980.901)">
            <path d="M0.821,-0.744C0.824,-0.747 0.828,-0.752 0.835,-0.759C0.842,-0.767 0.847,-0.771 0.851,-0.771C0.855,-0.771 0.864,-0.765 0.877,-0.752C0.891,-0.739 0.904,-0.726 0.917,-0.712C0.929,-0.697 0.935,-0.688 0.935,-0.683C0.932,-0.679 0.927,-0.676 0.922,-0.675C0.916,-0.674 0.908,-0.673 0.898,-0.672C0.881,-0.658 0.859,-0.643 0.831,-0.627C0.803,-0.612 0.777,-0.599 0.753,-0.589L0.743,-0.596C0.757,-0.617 0.775,-0.648 0.796,-0.689L0.203,-0.689C0.204,-0.657 0.199,-0.629 0.188,-0.607C0.177,-0.584 0.162,-0.566 0.145,-0.555C0.133,-0.547 0.12,-0.543 0.106,-0.543C0.093,-0.543 0.081,-0.547 0.071,-0.556C0.061,-0.564 0.056,-0.575 0.056,-0.59C0.056,-0.601 0.059,-0.612 0.066,-0.621C0.073,-0.629 0.082,-0.637 0.093,-0.643C0.114,-0.654 0.133,-0.673 0.15,-0.699C0.167,-0.724 0.175,-0.752 0.174,-0.781L0.188,-0.781C0.196,-0.756 0.2,-0.735 0.201,-0.718L0.45,-0.718C0.45,-0.775 0.447,-0.821 0.442,-0.855C0.489,-0.844 0.522,-0.836 0.541,-0.829C0.56,-0.822 0.569,-0.816 0.569,-0.811C0.569,-0.808 0.566,-0.804 0.561,-0.801L0.544,-0.79L0.544,-0.718L0.798,-0.718L0.821,-0.744ZM0.183,-0.346C0.144,-0.307 0.104,-0.273 0.061,-0.245L0.05,-0.256C0.096,-0.307 0.14,-0.371 0.182,-0.447C0.198,-0.476 0.214,-0.511 0.23,-0.552C0.245,-0.592 0.255,-0.626 0.26,-0.653C0.305,-0.636 0.336,-0.622 0.354,-0.613C0.371,-0.604 0.38,-0.597 0.38,-0.593C0.38,-0.591 0.377,-0.589 0.371,-0.586L0.352,-0.58C0.325,-0.53 0.296,-0.483 0.264,-0.44L0.3,-0.426C0.297,-0.417 0.287,-0.411 0.271,-0.408L0.271,-0.181C0.272,-0.098 0.275,-0.02 0.279,0.054C0.274,0.061 0.263,0.067 0.247,0.074C0.23,0.081 0.215,0.085 0.2,0.085C0.192,0.085 0.185,0.083 0.18,0.079C0.175,0.075 0.172,0.07 0.172,0.065C0.175,0.026 0.177,-0.013 0.179,-0.05C0.181,-0.086 0.182,-0.135 0.183,-0.195L0.183,-0.346ZM0.775,-0.435C0.777,-0.437 0.78,-0.441 0.784,-0.446C0.788,-0.451 0.792,-0.455 0.795,-0.458C0.798,-0.46 0.8,-0.461 0.803,-0.461C0.807,-0.461 0.817,-0.456 0.832,-0.445C0.847,-0.434 0.862,-0.422 0.875,-0.409C0.888,-0.397 0.895,-0.389 0.895,-0.384C0.888,-0.375 0.875,-0.368 0.854,-0.363L0.854,-0.189C0.855,-0.106 0.858,-0.028 0.862,0.046C0.857,0.053 0.846,0.06 0.828,0.067C0.809,0.074 0.793,0.078 0.778,0.078C0.767,0.078 0.761,0.071 0.761,0.058C0.761,0.058 0.762,0.049 0.765,0.03L0.765,0.006L0.497,0.006L0.497,0.054C0.497,0.057 0.493,0.061 0.486,0.066C0.478,0.071 0.468,0.076 0.457,0.079C0.446,0.083 0.434,0.085 0.422,0.085C0.415,0.085 0.41,0.083 0.406,0.079C0.401,0.075 0.399,0.07 0.399,0.065C0.404,0.004 0.407,-0.063 0.408,-0.138L0.408,-0.25C0.408,-0.334 0.404,-0.402 0.395,-0.455L0.501,-0.409L0.554,-0.409C0.56,-0.448 0.565,-0.488 0.57,-0.528L0.501,-0.528C0.46,-0.527 0.417,-0.523 0.373,-0.514L0.347,-0.564C0.384,-0.56 0.428,-0.557 0.48,-0.556L0.795,-0.556L0.818,-0.587C0.821,-0.59 0.824,-0.595 0.829,-0.601C0.833,-0.606 0.837,-0.611 0.84,-0.614C0.843,-0.617 0.845,-0.618 0.848,-0.618C0.852,-0.618 0.862,-0.613 0.876,-0.603C0.891,-0.592 0.905,-0.581 0.918,-0.569C0.931,-0.557 0.937,-0.549 0.937,-0.544C0.935,-0.533 0.926,-0.528 0.911,-0.528L0.675,-0.528C0.653,-0.486 0.629,-0.446 0.603,-0.409L0.755,-0.409L0.775,-0.435ZM0.765,-0.222L0.765,-0.38L0.497,-0.38L0.497,-0.222L0.765,-0.222ZM0.497,-0.194L0.497,-0.023L0.765,-0.023L0.765,-0.194L0.497,-0.194Z" style="fill:rgb(41,106,139);fill-rule:nonzero;"/>
        </g>
        <g transform="matrix(762.458,0,0,762.458,5579.94,980.901)">
            <path d="M0.276,0.006C0.263,0.006 0.25,-0.001 0.235,-0.014C0.22,-0.027 0.209,-0.043 0.201,-0.062C0.174,-0.127 0.16,-0.204 0.16,-0.291C0.16,-0.335 0.163,-0.374 0.17,-0.408C0.177,-0.442 0.186,-0.477 0.198,-0.514C0.207,-0.543 0.213,-0.566 0.216,-0.581C0.219,-0.596 0.221,-0.612 0.221,-0.629C0.221,-0.644 0.218,-0.659 0.213,-0.675C0.207,-0.69 0.199,-0.703 0.19,-0.712C0.182,-0.719 0.178,-0.723 0.178,-0.726C0.178,-0.729 0.18,-0.73 0.185,-0.73C0.19,-0.73 0.196,-0.729 0.202,-0.726C0.274,-0.699 0.31,-0.653 0.31,-0.59C0.31,-0.572 0.307,-0.555 0.3,-0.538C0.293,-0.521 0.282,-0.501 0.269,-0.478C0.249,-0.446 0.236,-0.418 0.229,-0.393C0.222,-0.37 0.219,-0.346 0.219,-0.319C0.219,-0.303 0.221,-0.288 0.225,-0.275C0.228,-0.261 0.233,-0.254 0.238,-0.254C0.24,-0.254 0.242,-0.255 0.245,-0.258C0.247,-0.261 0.249,-0.264 0.251,-0.267C0.252,-0.27 0.254,-0.272 0.255,-0.274C0.262,-0.288 0.27,-0.304 0.279,-0.321C0.287,-0.338 0.294,-0.354 0.301,-0.367L0.314,-0.394C0.319,-0.402 0.323,-0.406 0.326,-0.406C0.328,-0.406 0.329,-0.405 0.329,-0.402L0.326,-0.39C0.316,-0.365 0.305,-0.331 0.293,-0.288C0.281,-0.245 0.275,-0.21 0.275,-0.185C0.275,-0.166 0.277,-0.149 0.281,-0.134C0.284,-0.118 0.29,-0.099 0.297,-0.078C0.298,-0.075 0.3,-0.067 0.304,-0.056C0.307,-0.045 0.309,-0.035 0.309,-0.028C0.309,-0.017 0.306,-0.009 0.3,-0.003C0.293,0.003 0.285,0.006 0.276,0.006ZM0.64,-0.553C0.599,-0.553 0.564,-0.559 0.536,-0.571C0.516,-0.579 0.499,-0.59 0.485,-0.603C0.471,-0.616 0.461,-0.629 0.455,-0.642C0.452,-0.649 0.45,-0.653 0.45,-0.656C0.45,-0.659 0.451,-0.66 0.453,-0.66C0.454,-0.66 0.458,-0.659 0.463,-0.656C0.468,-0.653 0.473,-0.65 0.477,-0.648C0.5,-0.638 0.527,-0.633 0.558,-0.633C0.577,-0.633 0.6,-0.635 0.628,-0.639C0.656,-0.643 0.681,-0.648 0.702,-0.654C0.714,-0.658 0.724,-0.66 0.733,-0.66C0.752,-0.66 0.768,-0.655 0.781,-0.646C0.794,-0.637 0.8,-0.625 0.8,-0.611C0.8,-0.59 0.783,-0.575 0.75,-0.566C0.716,-0.557 0.679,-0.553 0.64,-0.553ZM0.667,-0.033C0.608,-0.033 0.559,-0.043 0.52,-0.062C0.481,-0.081 0.453,-0.113 0.436,-0.159C0.431,-0.172 0.428,-0.181 0.428,-0.187C0.428,-0.19 0.429,-0.191 0.432,-0.191C0.434,-0.191 0.437,-0.19 0.44,-0.187C0.443,-0.184 0.446,-0.181 0.449,-0.179C0.462,-0.169 0.476,-0.161 0.49,-0.154C0.504,-0.147 0.521,-0.141 0.542,-0.136C0.559,-0.132 0.581,-0.13 0.609,-0.13C0.633,-0.13 0.672,-0.133 0.726,-0.139C0.755,-0.142 0.771,-0.143 0.773,-0.143C0.794,-0.143 0.811,-0.138 0.823,-0.128C0.834,-0.117 0.84,-0.105 0.84,-0.091C0.84,-0.067 0.824,-0.051 0.791,-0.044C0.757,-0.037 0.716,-0.033 0.667,-0.033Z" style="fill:rgb(41,106,139);fill-rule:nonzero;"/>
        </g>
        <g transform="matrix(762.458,0,0,762.458,6342.4,980.901)">
            <path d="M0.821,-0.678C0.824,-0.681 0.828,-0.685 0.831,-0.69C0.834,-0.695 0.838,-0.699 0.841,-0.702C0.844,-0.705 0.847,-0.707 0.85,-0.707C0.854,-0.707 0.863,-0.702 0.878,-0.691C0.893,-0.68 0.906,-0.669 0.919,-0.657C0.932,-0.645 0.938,-0.637 0.938,-0.632C0.929,-0.621 0.915,-0.614 0.897,-0.611L0.897,-0.192C0.898,-0.109 0.901,-0.031 0.905,0.043C0.9,0.05 0.889,0.058 0.874,0.065C0.858,0.072 0.84,0.076 0.819,0.076C0.806,0.076 0.799,0.069 0.799,0.056C0.799,0.055 0.8,0.042 0.803,0.017L0.803,-0.013L0.483,-0.013L0.483,0.011C0.485,0.036 0.486,0.049 0.487,0.052C0.484,0.059 0.476,0.066 0.462,0.073C0.447,0.08 0.429,0.083 0.408,0.083C0.4,0.083 0.394,0.081 0.389,0.077C0.384,0.073 0.381,0.068 0.381,0.063C0.384,0.024 0.386,-0.015 0.388,-0.051C0.39,-0.089 0.391,-0.137 0.392,-0.197L0.392,-0.491C0.392,-0.575 0.388,-0.643 0.379,-0.696L0.494,-0.649L0.557,-0.649C0.563,-0.684 0.568,-0.72 0.571,-0.756C0.574,-0.793 0.575,-0.824 0.574,-0.85L0.733,-0.818C0.729,-0.801 0.717,-0.793 0.696,-0.792C0.658,-0.734 0.625,-0.686 0.596,-0.649L0.799,-0.649L0.821,-0.678ZM0.14,-0.828C0.181,-0.825 0.214,-0.817 0.241,-0.805C0.267,-0.793 0.286,-0.779 0.298,-0.764C0.309,-0.749 0.315,-0.733 0.315,-0.717C0.315,-0.703 0.311,-0.691 0.302,-0.682C0.293,-0.672 0.283,-0.667 0.27,-0.667C0.259,-0.667 0.249,-0.67 0.238,-0.676C0.231,-0.7 0.218,-0.725 0.197,-0.751C0.176,-0.778 0.155,-0.801 0.132,-0.82L0.14,-0.828ZM0.116,-0.204C0.123,-0.204 0.129,-0.205 0.132,-0.207C0.135,-0.209 0.139,-0.215 0.145,-0.224C0.156,-0.242 0.175,-0.28 0.202,-0.337C0.229,-0.394 0.278,-0.497 0.349,-0.646L0.364,-0.641L0.311,-0.49C0.266,-0.365 0.239,-0.286 0.229,-0.254C0.228,-0.251 0.226,-0.238 0.221,-0.218C0.216,-0.197 0.214,-0.179 0.214,-0.164C0.215,-0.152 0.217,-0.14 0.221,-0.127C0.224,-0.114 0.226,-0.107 0.227,-0.104C0.233,-0.086 0.238,-0.07 0.241,-0.055C0.244,-0.04 0.246,-0.022 0.246,-0.003C0.246,0.024 0.24,0.046 0.228,0.061C0.216,0.076 0.199,0.084 0.176,0.084C0.165,0.084 0.155,0.08 0.148,0.071C0.141,0.063 0.136,0.051 0.133,0.034C0.139,-0.007 0.142,-0.044 0.142,-0.076C0.142,-0.129 0.135,-0.159 0.121,-0.168C0.11,-0.177 0.094,-0.182 0.073,-0.184L0.073,-0.204L0.116,-0.204ZM0.803,-0.357L0.803,-0.621L0.483,-0.621L0.483,-0.357L0.803,-0.357ZM0.06,-0.601C0.117,-0.597 0.16,-0.585 0.187,-0.564C0.214,-0.543 0.227,-0.521 0.227,-0.497C0.227,-0.484 0.223,-0.472 0.215,-0.463C0.207,-0.454 0.197,-0.449 0.184,-0.449C0.173,-0.449 0.163,-0.452 0.152,-0.459C0.145,-0.482 0.132,-0.505 0.113,-0.531C0.094,-0.556 0.073,-0.576 0.052,-0.593L0.06,-0.601ZM0.483,-0.329L0.483,-0.042L0.803,-0.042L0.803,-0.329L0.483,-0.329Z" style="fill:rgb(41,106,139);fill-rule:nonzero;"/>
        </g>
        <g transform="matrix(762.458,0,0,762.458,7104.86,980.901)">
            <path d="M0.563,-0.161C0.613,-0.144 0.654,-0.124 0.687,-0.099C0.72,-0.074 0.736,-0.047 0.736,-0.018C0.736,-0.005 0.733,0.006 0.726,0.013C0.719,0.02 0.712,0.024 0.703,0.024C0.695,0.024 0.686,0.021 0.677,0.015C0.668,0.01 0.657,0.002 0.646,-0.009C0.609,-0.042 0.582,-0.066 0.563,-0.081C0.554,-0.046 0.535,-0.018 0.505,0.003C0.476,0.024 0.44,0.034 0.397,0.034C0.354,0.034 0.316,0.024 0.283,0.005C0.251,-0.014 0.235,-0.041 0.235,-0.076C0.235,-0.099 0.243,-0.12 0.259,-0.138C0.275,-0.155 0.296,-0.169 0.322,-0.178C0.347,-0.187 0.373,-0.191 0.4,-0.191C0.427,-0.191 0.456,-0.188 0.485,-0.181C0.484,-0.198 0.483,-0.214 0.482,-0.229C0.481,-0.244 0.48,-0.258 0.479,-0.271L0.476,-0.319C0.449,-0.315 0.423,-0.313 0.397,-0.313C0.357,-0.313 0.321,-0.322 0.29,-0.34C0.258,-0.358 0.236,-0.382 0.223,-0.413C0.221,-0.419 0.22,-0.423 0.22,-0.424C0.22,-0.427 0.221,-0.429 0.224,-0.429C0.226,-0.429 0.228,-0.428 0.231,-0.426C0.234,-0.424 0.236,-0.423 0.237,-0.422C0.247,-0.415 0.266,-0.407 0.293,-0.398C0.32,-0.389 0.349,-0.384 0.378,-0.384C0.407,-0.384 0.439,-0.387 0.473,-0.392L0.473,-0.395C0.473,-0.453 0.475,-0.502 0.478,-0.542C0.453,-0.542 0.432,-0.546 0.416,-0.554C0.401,-0.561 0.387,-0.572 0.372,-0.585C0.357,-0.598 0.346,-0.611 0.337,-0.622C0.336,-0.624 0.334,-0.627 0.332,-0.631C0.329,-0.635 0.328,-0.638 0.328,-0.639C0.328,-0.642 0.329,-0.643 0.332,-0.643C0.334,-0.643 0.34,-0.641 0.351,-0.636C0.367,-0.628 0.381,-0.622 0.394,-0.618C0.406,-0.613 0.419,-0.611 0.433,-0.611C0.445,-0.611 0.463,-0.613 0.488,-0.618C0.489,-0.623 0.49,-0.633 0.492,-0.646C0.494,-0.659 0.495,-0.671 0.495,-0.681C0.495,-0.704 0.49,-0.726 0.48,-0.748C0.474,-0.761 0.467,-0.771 0.458,-0.78C0.449,-0.789 0.444,-0.795 0.444,-0.799C0.444,-0.804 0.447,-0.807 0.454,-0.81C0.46,-0.812 0.467,-0.813 0.475,-0.813C0.488,-0.813 0.502,-0.81 0.518,-0.804C0.534,-0.798 0.548,-0.789 0.56,-0.777C0.571,-0.765 0.577,-0.751 0.577,-0.734C0.577,-0.726 0.575,-0.717 0.571,-0.706C0.567,-0.695 0.564,-0.688 0.563,-0.685C0.554,-0.664 0.549,-0.648 0.546,-0.637L0.545,-0.632L0.595,-0.646C0.606,-0.649 0.613,-0.65 0.618,-0.65C0.628,-0.65 0.636,-0.648 0.642,-0.643C0.648,-0.637 0.651,-0.63 0.651,-0.621C0.651,-0.612 0.647,-0.602 0.64,-0.593C0.633,-0.584 0.623,-0.576 0.612,-0.571C0.591,-0.561 0.565,-0.553 0.533,-0.547C0.53,-0.524 0.529,-0.498 0.529,-0.47C0.528,-0.463 0.528,-0.451 0.528,-0.436L0.528,-0.403C0.559,-0.411 0.583,-0.421 0.6,-0.433C0.609,-0.439 0.614,-0.446 0.614,-0.454C0.614,-0.459 0.612,-0.465 0.609,-0.47C0.606,-0.475 0.601,-0.481 0.596,-0.488C0.591,-0.494 0.586,-0.499 0.583,-0.504C0.581,-0.507 0.579,-0.509 0.577,-0.513C0.575,-0.516 0.574,-0.518 0.574,-0.519C0.574,-0.521 0.575,-0.522 0.577,-0.522C0.58,-0.522 0.586,-0.518 0.595,-0.511C0.616,-0.495 0.638,-0.486 0.663,-0.484C0.671,-0.483 0.679,-0.483 0.688,-0.483C0.7,-0.482 0.709,-0.477 0.716,-0.47C0.721,-0.465 0.723,-0.457 0.723,-0.446C0.723,-0.432 0.719,-0.419 0.712,-0.406C0.704,-0.393 0.692,-0.382 0.675,-0.374C0.636,-0.356 0.588,-0.341 0.531,-0.33C0.534,-0.307 0.538,-0.284 0.543,-0.261C0.548,-0.237 0.551,-0.221 0.552,-0.214L0.563,-0.161ZM0.373,-0.028C0.406,-0.028 0.433,-0.037 0.454,-0.055C0.474,-0.072 0.486,-0.095 0.488,-0.124C0.457,-0.137 0.425,-0.143 0.392,-0.143C0.36,-0.143 0.333,-0.138 0.31,-0.127C0.286,-0.116 0.275,-0.1 0.275,-0.081C0.275,-0.068 0.283,-0.056 0.3,-0.045C0.316,-0.034 0.34,-0.028 0.373,-0.028Z" style="fill:rgb(41,106,139);fill-rule:nonzero;"/>
        </g>
        <g transform="matrix(762.458,0,0,762.458,7867.32,980.901)">
            <path d="M0.623,-0.447C0.666,-0.447 0.704,-0.439 0.737,-0.423C0.769,-0.406 0.794,-0.384 0.811,-0.355C0.828,-0.326 0.836,-0.294 0.836,-0.257C0.836,-0.201 0.816,-0.153 0.777,-0.114C0.737,-0.074 0.691,-0.043 0.639,-0.021C0.587,0.001 0.538,0.016 0.492,0.025C0.479,0.028 0.468,0.029 0.46,0.029C0.451,0.029 0.446,0.027 0.446,0.023C0.446,0.019 0.454,0.015 0.47,0.011C0.5,0.004 0.536,-0.011 0.578,-0.034C0.619,-0.057 0.656,-0.088 0.688,-0.127C0.72,-0.166 0.736,-0.212 0.736,-0.263C0.736,-0.303 0.722,-0.335 0.694,-0.36C0.665,-0.385 0.627,-0.397 0.58,-0.397C0.547,-0.397 0.516,-0.392 0.485,-0.382C0.454,-0.372 0.427,-0.358 0.403,-0.34C0.368,-0.313 0.342,-0.286 0.326,-0.258C0.31,-0.23 0.296,-0.199 0.285,-0.165C0.278,-0.145 0.274,-0.133 0.271,-0.128C0.264,-0.115 0.253,-0.105 0.239,-0.098C0.226,-0.091 0.213,-0.087 0.201,-0.087C0.189,-0.087 0.179,-0.092 0.172,-0.103C0.165,-0.114 0.161,-0.127 0.161,-0.143C0.161,-0.156 0.164,-0.171 0.17,-0.186C0.175,-0.197 0.185,-0.214 0.201,-0.238C0.217,-0.262 0.233,-0.286 0.25,-0.309L0.264,-0.328C0.303,-0.379 0.339,-0.429 0.374,-0.478C0.409,-0.527 0.445,-0.586 0.484,-0.654C0.489,-0.663 0.492,-0.67 0.492,-0.674C0.492,-0.677 0.491,-0.68 0.489,-0.682C0.486,-0.683 0.484,-0.684 0.482,-0.684C0.478,-0.684 0.473,-0.681 0.466,-0.676C0.456,-0.667 0.442,-0.652 0.424,-0.63C0.413,-0.614 0.402,-0.602 0.393,-0.595C0.384,-0.587 0.372,-0.583 0.359,-0.583C0.343,-0.583 0.325,-0.589 0.306,-0.602C0.286,-0.614 0.27,-0.629 0.257,-0.647C0.254,-0.654 0.252,-0.658 0.252,-0.66C0.252,-0.664 0.253,-0.667 0.255,-0.668C0.257,-0.669 0.26,-0.67 0.265,-0.67C0.27,-0.67 0.277,-0.67 0.284,-0.669C0.291,-0.668 0.298,-0.668 0.305,-0.669C0.322,-0.671 0.335,-0.674 0.346,-0.678C0.362,-0.683 0.387,-0.696 0.421,-0.717C0.444,-0.731 0.462,-0.742 0.476,-0.749C0.49,-0.755 0.502,-0.759 0.513,-0.759C0.538,-0.759 0.56,-0.752 0.579,-0.738C0.598,-0.723 0.607,-0.706 0.607,-0.686C0.607,-0.675 0.604,-0.665 0.597,-0.656C0.59,-0.646 0.579,-0.634 0.562,-0.619C0.537,-0.596 0.505,-0.559 0.466,-0.507C0.426,-0.456 0.396,-0.414 0.376,-0.381C0.373,-0.376 0.37,-0.371 0.367,-0.366C0.364,-0.361 0.361,-0.356 0.358,-0.351C0.391,-0.382 0.43,-0.405 0.472,-0.422C0.516,-0.439 0.566,-0.447 0.623,-0.447Z" style="fill:rgb(41,106,139);fill-rule:nonzero;"/>
        </g>
        <g transform="matrix(762.458,0,0,762.458,8629.77,980.901)">
            <path d="M0.351,-0.644C0.348,-0.644 0.347,-0.645 0.347,-0.647C0.347,-0.65 0.351,-0.654 0.359,-0.659L0.41,-0.688L0.438,-0.703C0.446,-0.708 0.45,-0.713 0.45,-0.716C0.45,-0.719 0.448,-0.721 0.444,-0.724C0.44,-0.726 0.435,-0.728 0.429,-0.73C0.408,-0.739 0.389,-0.75 0.372,-0.762C0.355,-0.774 0.338,-0.792 0.322,-0.815C0.318,-0.82 0.316,-0.824 0.316,-0.827C0.316,-0.83 0.317,-0.832 0.319,-0.832C0.32,-0.832 0.323,-0.831 0.326,-0.829C0.329,-0.827 0.332,-0.826 0.334,-0.825C0.345,-0.818 0.355,-0.812 0.364,-0.807C0.373,-0.802 0.383,-0.799 0.395,-0.797C0.414,-0.792 0.449,-0.789 0.498,-0.787C0.507,-0.787 0.517,-0.786 0.53,-0.785C0.542,-0.783 0.552,-0.78 0.56,-0.777C0.577,-0.772 0.594,-0.763 0.609,-0.751C0.624,-0.739 0.631,-0.727 0.631,-0.716C0.631,-0.707 0.626,-0.699 0.617,-0.693C0.608,-0.687 0.597,-0.684 0.585,-0.684L0.523,-0.686C0.498,-0.686 0.474,-0.683 0.449,-0.677C0.424,-0.671 0.395,-0.661 0.36,-0.646C0.355,-0.645 0.352,-0.644 0.351,-0.644ZM0.324,0.057C0.316,0.059 0.312,0.06 0.311,0.06C0.309,0.06 0.307,0.059 0.306,0.058C0.305,0.057 0.304,0.056 0.304,0.055C0.304,0.053 0.305,0.051 0.308,0.049C0.31,0.047 0.313,0.045 0.318,0.043C0.393,0.014 0.454,-0.025 0.501,-0.073C0.548,-0.121 0.581,-0.172 0.601,-0.227C0.62,-0.282 0.63,-0.336 0.63,-0.39C0.63,-0.429 0.623,-0.462 0.609,-0.489C0.595,-0.516 0.573,-0.53 0.544,-0.53C0.528,-0.53 0.513,-0.526 0.498,-0.517C0.483,-0.507 0.464,-0.494 0.443,-0.477C0.424,-0.461 0.408,-0.449 0.396,-0.442C0.383,-0.434 0.371,-0.43 0.358,-0.43C0.343,-0.43 0.327,-0.435 0.312,-0.444C0.297,-0.453 0.284,-0.465 0.275,-0.48C0.266,-0.495 0.261,-0.509 0.261,-0.524C0.261,-0.533 0.262,-0.541 0.265,-0.55C0.268,-0.558 0.271,-0.562 0.274,-0.562C0.278,-0.562 0.284,-0.558 0.292,-0.55C0.298,-0.543 0.305,-0.539 0.312,-0.537C0.319,-0.534 0.328,-0.533 0.339,-0.533C0.356,-0.533 0.375,-0.536 0.396,-0.542C0.417,-0.547 0.429,-0.551 0.432,-0.552C0.485,-0.566 0.53,-0.573 0.567,-0.573C0.606,-0.573 0.644,-0.56 0.679,-0.533C0.714,-0.505 0.732,-0.454 0.732,-0.377C0.732,-0.321 0.718,-0.265 0.691,-0.207C0.663,-0.151 0.619,-0.098 0.558,-0.051C0.497,-0.003 0.419,0.033 0.324,0.057Z" style="fill:rgb(41,106,139);fill-rule:nonzero;"/>
        </g>
    </g>
</svg>
