<?xml version="1.0" encoding="UTF-8" standalone="no"?>
<!DOCTYPE svg PUBLIC "-//W3C//DTD SVG 1.1//EN" "http://www.w3.org/Graphics/SVG/1.1/DTD/svg11.dtd">
<svg width="100%" height="100%" viewBox="0 0 3544 1182" version="1.1" xmlns="http://www.w3.org/2000/svg" xmlns:xlink="http://www.w3.org/1999/xlink" xml:space="preserve" xmlns:serif="http://www.serif.com/" style="fill-rule:evenodd;clip-rule:evenodd;stroke-linejoin:round;stroke-miterlimit:2;">
    <g transform="matrix(10.8462,0,0,2.01416,-14179.6,-644.917)">
        <rect x="1307.34" y="320.191" width="326.688" height="586.399" style="fill:none;"/>
    </g>
    <g transform="matrix(1,0,0,1,-726.761,-3.81229)">
        <g transform="matrix(1,0,0,1,2404.29,-86.6373)">
            <g transform="matrix(762.458,0,0,762.458,1005.19,980.901)">
                <path d="M0.524,0.028C0.453,0.028 0.394,0.015 0.348,-0.012C0.302,-0.039 0.279,-0.083 0.279,-0.145C0.279,-0.194 0.292,-0.237 0.319,-0.273C0.346,-0.308 0.382,-0.342 0.429,-0.373C0.404,-0.394 0.386,-0.415 0.375,-0.438C0.364,-0.46 0.358,-0.488 0.358,-0.523C0.358,-0.542 0.359,-0.559 0.362,-0.575C0.365,-0.591 0.368,-0.61 0.373,-0.633C0.376,-0.646 0.379,-0.66 0.382,-0.674C0.384,-0.688 0.385,-0.701 0.385,-0.713C0.385,-0.744 0.377,-0.769 0.36,-0.789C0.356,-0.793 0.352,-0.797 0.347,-0.801C0.342,-0.805 0.34,-0.808 0.34,-0.809C0.34,-0.812 0.341,-0.814 0.344,-0.815C0.347,-0.816 0.351,-0.816 0.357,-0.816C0.364,-0.816 0.373,-0.815 0.382,-0.814C0.391,-0.812 0.399,-0.81 0.405,-0.807C0.458,-0.791 0.484,-0.76 0.484,-0.715C0.484,-0.704 0.482,-0.693 0.479,-0.683C0.476,-0.672 0.47,-0.659 0.463,-0.644L0.454,-0.624C0.445,-0.602 0.437,-0.582 0.432,-0.565C0.427,-0.548 0.424,-0.529 0.424,-0.508C0.424,-0.485 0.429,-0.464 0.439,-0.443C0.448,-0.422 0.46,-0.411 0.473,-0.411C0.482,-0.411 0.491,-0.413 0.5,-0.417C0.51,-0.421 0.523,-0.427 0.538,-0.435C0.553,-0.443 0.566,-0.449 0.576,-0.453C0.585,-0.457 0.594,-0.459 0.602,-0.459C0.621,-0.459 0.637,-0.454 0.653,-0.444C0.668,-0.434 0.675,-0.423 0.675,-0.41C0.675,-0.395 0.668,-0.384 0.654,-0.378C0.639,-0.371 0.614,-0.365 0.579,-0.359C0.513,-0.348 0.458,-0.327 0.412,-0.295C0.368,-0.263 0.345,-0.221 0.345,-0.169C0.345,-0.136 0.356,-0.109 0.378,-0.09C0.399,-0.07 0.432,-0.06 0.475,-0.06C0.498,-0.06 0.528,-0.064 0.567,-0.072C0.6,-0.079 0.625,-0.082 0.641,-0.082C0.664,-0.082 0.681,-0.078 0.693,-0.07C0.705,-0.062 0.711,-0.05 0.711,-0.035C0.711,-0.012 0.692,0.005 0.655,0.014C0.618,0.023 0.574,0.028 0.524,0.028ZM0.837,-0.659C0.823,-0.659 0.809,-0.667 0.796,-0.682C0.779,-0.703 0.766,-0.719 0.755,-0.729C0.744,-0.739 0.731,-0.748 0.714,-0.756C0.707,-0.759 0.702,-0.761 0.697,-0.763C0.692,-0.765 0.689,-0.767 0.686,-0.768C0.683,-0.769 0.681,-0.771 0.681,-0.773C0.681,-0.779 0.697,-0.782 0.73,-0.782C0.766,-0.782 0.799,-0.775 0.83,-0.761C0.861,-0.748 0.876,-0.727 0.876,-0.699C0.876,-0.686 0.872,-0.677 0.864,-0.67C0.856,-0.663 0.847,-0.659 0.837,-0.659ZM0.733,-0.56C0.715,-0.56 0.701,-0.569 0.69,-0.588C0.678,-0.609 0.666,-0.626 0.653,-0.64C0.64,-0.654 0.625,-0.666 0.606,-0.677C0.601,-0.68 0.596,-0.683 0.59,-0.686C0.584,-0.689 0.581,-0.691 0.581,-0.694C0.581,-0.699 0.589,-0.701 0.605,-0.701C0.625,-0.701 0.648,-0.698 0.675,-0.692C0.702,-0.686 0.726,-0.676 0.747,-0.661C0.768,-0.646 0.778,-0.627 0.778,-0.602C0.778,-0.588 0.774,-0.578 0.764,-0.571C0.755,-0.564 0.745,-0.56 0.733,-0.56Z" style="fill:rgb(41,106,139);fill-rule:nonzero;"/>
            </g>
        </g>
        <g transform="matrix(1,0,0,1,1644.23,-105.572)">
            <g transform="matrix(762.458,0,0,762.458,1005.19,980.901)">
                <path d="M0.673,-0.64C0.714,-0.64 0.75,-0.633 0.784,-0.619C0.817,-0.604 0.842,-0.584 0.861,-0.557C0.88,-0.53 0.889,-0.497 0.889,-0.46C0.889,-0.427 0.881,-0.397 0.864,-0.371C0.847,-0.345 0.825,-0.325 0.797,-0.311C0.768,-0.296 0.738,-0.289 0.705,-0.289C0.666,-0.289 0.626,-0.3 0.586,-0.323C0.545,-0.345 0.506,-0.378 0.47,-0.422C0.461,-0.433 0.457,-0.441 0.457,-0.446C0.457,-0.448 0.458,-0.449 0.46,-0.449C0.462,-0.449 0.465,-0.447 0.47,-0.443C0.475,-0.439 0.479,-0.435 0.483,-0.432C0.514,-0.411 0.547,-0.395 0.58,-0.383C0.613,-0.37 0.644,-0.364 0.672,-0.364C0.712,-0.364 0.745,-0.375 0.77,-0.397C0.795,-0.418 0.807,-0.446 0.807,-0.481C0.807,-0.518 0.794,-0.547 0.768,-0.568C0.742,-0.589 0.709,-0.6 0.67,-0.6C0.626,-0.6 0.575,-0.582 0.518,-0.547C0.461,-0.512 0.406,-0.469 0.353,-0.419C0.39,-0.356 0.422,-0.295 0.451,-0.237C0.503,-0.13 0.529,-0.056 0.529,-0.013C0.529,0.004 0.524,0.018 0.514,0.029C0.504,0.04 0.491,0.046 0.476,0.046C0.46,0.046 0.448,0.041 0.441,0.032C0.433,0.023 0.428,0.013 0.426,0.002C0.423,-0.009 0.42,-0.027 0.417,-0.052C0.408,-0.115 0.395,-0.172 0.378,-0.225C0.361,-0.277 0.338,-0.329 0.309,-0.38C0.279,-0.353 0.255,-0.334 0.237,-0.321C0.22,-0.308 0.204,-0.302 0.189,-0.302C0.165,-0.302 0.143,-0.312 0.125,-0.331C0.106,-0.349 0.094,-0.371 0.091,-0.395C0.091,-0.4 0.092,-0.407 0.093,-0.415C0.093,-0.416 0.093,-0.417 0.094,-0.418C0.095,-0.419 0.095,-0.419 0.096,-0.419C0.097,-0.419 0.099,-0.418 0.102,-0.415C0.113,-0.402 0.13,-0.395 0.153,-0.395C0.165,-0.395 0.177,-0.398 0.188,-0.405C0.199,-0.411 0.214,-0.421 0.232,-0.435L0.262,-0.458C0.25,-0.477 0.234,-0.5 0.214,-0.528C0.202,-0.543 0.193,-0.559 0.187,-0.576C0.181,-0.593 0.178,-0.608 0.178,-0.623C0.178,-0.654 0.189,-0.678 0.211,-0.697C0.232,-0.716 0.262,-0.725 0.3,-0.725C0.318,-0.725 0.344,-0.723 0.378,-0.718C0.409,-0.711 0.432,-0.708 0.445,-0.708C0.463,-0.708 0.472,-0.714 0.472,-0.727C0.472,-0.733 0.47,-0.739 0.465,-0.746C0.46,-0.753 0.455,-0.758 0.449,-0.763C0.447,-0.765 0.444,-0.768 0.439,-0.772C0.434,-0.775 0.431,-0.778 0.431,-0.78C0.431,-0.782 0.433,-0.783 0.437,-0.783C0.446,-0.783 0.458,-0.779 0.475,-0.772C0.499,-0.762 0.521,-0.749 0.54,-0.733C0.559,-0.716 0.569,-0.698 0.569,-0.677C0.569,-0.662 0.563,-0.651 0.551,-0.642C0.538,-0.632 0.525,-0.628 0.51,-0.628C0.493,-0.628 0.472,-0.635 0.449,-0.648C0.425,-0.662 0.4,-0.674 0.374,-0.684C0.348,-0.694 0.325,-0.699 0.305,-0.699C0.284,-0.699 0.269,-0.694 0.259,-0.683C0.248,-0.672 0.243,-0.656 0.243,-0.637C0.243,-0.616 0.249,-0.594 0.26,-0.57C0.271,-0.546 0.287,-0.52 0.307,-0.491C0.366,-0.533 0.428,-0.568 0.492,-0.597C0.556,-0.626 0.616,-0.64 0.673,-0.64Z" style="fill:rgb(41,106,139);fill-rule:nonzero;"/>
            </g>
        </g>
        <g transform="matrix(1,0,0,1,807.55,-97.3117)">
            <g transform="matrix(762.458,0,0,762.458,1005.19,980.901)">
                <path d="M0.773,-0.524C0.773,-0.513 0.769,-0.503 0.76,-0.493C0.751,-0.482 0.742,-0.473 0.731,-0.466C0.71,-0.45 0.68,-0.434 0.642,-0.419L0.708,-0.313C0.723,-0.29 0.733,-0.273 0.739,-0.261C0.744,-0.249 0.747,-0.237 0.747,-0.224C0.747,-0.212 0.744,-0.199 0.737,-0.185C0.73,-0.171 0.721,-0.159 0.711,-0.15C0.7,-0.14 0.69,-0.135 0.681,-0.135C0.67,-0.135 0.657,-0.142 0.644,-0.155C0.617,-0.181 0.587,-0.2 0.554,-0.213C0.52,-0.226 0.486,-0.232 0.453,-0.232C0.414,-0.232 0.38,-0.224 0.353,-0.207C0.325,-0.19 0.311,-0.167 0.311,-0.136C0.311,-0.108 0.32,-0.087 0.339,-0.074C0.357,-0.061 0.38,-0.054 0.409,-0.054C0.428,-0.054 0.446,-0.056 0.465,-0.061C0.468,-0.062 0.474,-0.063 0.483,-0.064C0.492,-0.065 0.5,-0.066 0.507,-0.066C0.532,-0.066 0.554,-0.061 0.573,-0.052C0.591,-0.043 0.6,-0.029 0.6,-0.012C0.6,-0.001 0.597,0.008 0.59,0.017C0.583,0.026 0.573,0.032 0.56,0.034C0.539,0.037 0.512,0.039 0.479,0.039C0.414,0.038 0.36,0.023 0.319,-0.004C0.278,-0.031 0.257,-0.067 0.257,-0.112C0.257,-0.144 0.267,-0.172 0.288,-0.195C0.308,-0.218 0.335,-0.235 0.369,-0.247C0.402,-0.258 0.439,-0.264 0.478,-0.264C0.501,-0.264 0.535,-0.261 0.578,-0.255C0.598,-0.252 0.609,-0.251 0.611,-0.251C0.632,-0.251 0.643,-0.257 0.643,-0.27C0.643,-0.275 0.641,-0.284 0.636,-0.298C0.627,-0.32 0.61,-0.354 0.585,-0.4C0.535,-0.384 0.488,-0.376 0.443,-0.376C0.358,-0.376 0.295,-0.402 0.253,-0.455C0.246,-0.462 0.241,-0.469 0.238,-0.476C0.235,-0.484 0.233,-0.489 0.233,-0.492C0.233,-0.494 0.234,-0.495 0.237,-0.495C0.239,-0.495 0.244,-0.493 0.252,-0.489C0.268,-0.478 0.291,-0.467 0.321,-0.458C0.351,-0.449 0.381,-0.444 0.411,-0.444C0.431,-0.444 0.453,-0.446 0.478,-0.451C0.503,-0.456 0.526,-0.462 0.548,-0.469C0.541,-0.484 0.526,-0.511 0.504,-0.55C0.5,-0.559 0.496,-0.566 0.491,-0.572C0.454,-0.561 0.424,-0.555 0.399,-0.555C0.369,-0.555 0.344,-0.563 0.324,-0.578C0.303,-0.593 0.285,-0.616 0.268,-0.646C0.263,-0.654 0.261,-0.659 0.261,-0.661C0.261,-0.664 0.262,-0.665 0.265,-0.665C0.27,-0.665 0.278,-0.66 0.291,-0.649C0.298,-0.642 0.31,-0.636 0.327,-0.63C0.343,-0.624 0.359,-0.621 0.375,-0.621C0.394,-0.621 0.418,-0.627 0.447,-0.64C0.429,-0.665 0.411,-0.685 0.394,-0.7C0.377,-0.715 0.359,-0.728 0.34,-0.739C0.334,-0.743 0.328,-0.747 0.321,-0.75C0.314,-0.752 0.309,-0.754 0.307,-0.755C0.3,-0.758 0.296,-0.76 0.293,-0.761C0.29,-0.763 0.288,-0.766 0.288,-0.769C0.288,-0.777 0.296,-0.784 0.311,-0.79C0.326,-0.796 0.341,-0.799 0.354,-0.799C0.374,-0.799 0.392,-0.794 0.408,-0.784C0.424,-0.774 0.437,-0.759 0.447,-0.74C0.453,-0.727 0.468,-0.7 0.491,-0.661C0.502,-0.666 0.508,-0.668 0.511,-0.669C0.522,-0.672 0.533,-0.674 0.542,-0.674C0.555,-0.674 0.567,-0.671 0.576,-0.664C0.585,-0.657 0.59,-0.648 0.59,-0.639C0.59,-0.633 0.587,-0.626 0.582,-0.62C0.577,-0.613 0.57,-0.607 0.562,-0.603L0.534,-0.589L0.552,-0.56C0.583,-0.553 0.613,-0.549 0.642,-0.549C0.652,-0.549 0.668,-0.55 0.689,-0.553C0.702,-0.555 0.714,-0.556 0.723,-0.556C0.739,-0.556 0.751,-0.554 0.76,-0.549C0.769,-0.544 0.773,-0.536 0.773,-0.524ZM0.598,-0.488C0.601,-0.489 0.604,-0.49 0.608,-0.493C0.621,-0.502 0.628,-0.509 0.628,-0.514C0.628,-0.519 0.624,-0.523 0.615,-0.525C0.61,-0.526 0.603,-0.529 0.593,-0.532C0.582,-0.535 0.573,-0.538 0.565,-0.541L0.598,-0.488Z" style="fill:rgb(41,106,139);fill-rule:nonzero;"/>
            </g>
        </g>
        <g transform="matrix(1,0,0,1,-511.054,11.015)">
            <g transform="matrix(0.861711,0,0,0.861711,1023.38,15.6358)">
                <circle cx="994.723" cy="658.821" r="522.282" style="fill:rgb(41,106,139);"/>
            </g>
            <g transform="matrix(1,0,0,1,489.545,-97.6522)">
                <g transform="matrix(762.458,0,0,762.458,1005.19,980.901)">
                    <path d="M0.535,0.028C0.464,0.028 0.405,0.015 0.359,-0.012C0.313,-0.039 0.29,-0.083 0.29,-0.145C0.29,-0.194 0.303,-0.237 0.33,-0.273C0.357,-0.308 0.393,-0.342 0.44,-0.373C0.415,-0.394 0.397,-0.415 0.386,-0.438C0.375,-0.46 0.369,-0.488 0.369,-0.523C0.369,-0.542 0.37,-0.559 0.373,-0.575C0.376,-0.591 0.379,-0.61 0.384,-0.633C0.387,-0.646 0.39,-0.66 0.393,-0.674C0.395,-0.688 0.396,-0.701 0.396,-0.713C0.396,-0.744 0.388,-0.769 0.371,-0.789C0.367,-0.793 0.363,-0.797 0.358,-0.801C0.353,-0.805 0.351,-0.808 0.351,-0.809C0.351,-0.812 0.352,-0.814 0.355,-0.815C0.358,-0.816 0.362,-0.816 0.368,-0.816C0.375,-0.816 0.384,-0.815 0.393,-0.814C0.402,-0.812 0.41,-0.81 0.416,-0.807C0.469,-0.791 0.495,-0.76 0.495,-0.715C0.495,-0.704 0.493,-0.693 0.49,-0.683C0.487,-0.672 0.481,-0.659 0.474,-0.644L0.465,-0.624C0.456,-0.602 0.448,-0.582 0.443,-0.565C0.438,-0.548 0.435,-0.529 0.435,-0.508C0.435,-0.485 0.44,-0.464 0.45,-0.443C0.459,-0.422 0.471,-0.411 0.484,-0.411C0.493,-0.411 0.502,-0.413 0.511,-0.417C0.521,-0.421 0.534,-0.427 0.549,-0.435C0.564,-0.443 0.577,-0.449 0.587,-0.453C0.596,-0.457 0.605,-0.459 0.613,-0.459C0.632,-0.459 0.649,-0.454 0.664,-0.444C0.679,-0.434 0.686,-0.423 0.686,-0.41C0.686,-0.395 0.679,-0.384 0.665,-0.378C0.65,-0.371 0.625,-0.365 0.59,-0.359C0.524,-0.348 0.469,-0.327 0.424,-0.295C0.379,-0.263 0.356,-0.221 0.356,-0.169C0.356,-0.136 0.367,-0.109 0.389,-0.09C0.41,-0.07 0.443,-0.06 0.486,-0.06C0.509,-0.06 0.539,-0.064 0.578,-0.072C0.611,-0.079 0.636,-0.082 0.652,-0.082C0.675,-0.082 0.692,-0.078 0.704,-0.07C0.716,-0.062 0.722,-0.05 0.722,-0.035C0.722,-0.012 0.703,0.005 0.666,0.014C0.629,0.023 0.585,0.028 0.535,0.028Z" style="fill:white;fill-rule:nonzero;"/>
                </g>
            </g>
        </g>
    </g>
</svg>
